<svg xmlns="http://www.w3.org/2000/svg" viewBox="0 0 1200 950" font-family="'Plus Jakarta Sans', 'Segoe UI', system-ui, sans-serif">
  <defs>
    <marker id="af" markerWidth="10" markerHeight="7" refX="10" refY="3.5" orient="auto">
      <polygon points="0 0, 10 3.5, 0 7" fill="#2D5A27"/>
    </marker>
    <marker id="af-blue" markerWidth="10" markerHeight="7" refX="10" refY="3.5" orient="auto">
      <polygon points="0 0, 10 3.5, 0 7" fill="#3B5998"/>
    </marker>
    <marker id="af-orange" markerWidth="10" markerHeight="7" refX="10" refY="3.5" orient="auto">
      <polygon points="0 0, 10 3.5, 0 7" fill="#C4722A"/>
    </marker>
    <marker id="af-gray" markerWidth="10" markerHeight="7" refX="10" refY="3.5" orient="auto">
      <polygon points="0 0, 10 3.5, 0 7" fill="#555"/>
    </marker>
    <filter id="sh" x="-2%" y="-2%" width="104%" height="104%">
      <feDropShadow dx="1" dy="2" stdDeviation="3" flood-opacity="0.1"/>
    </filter>
  </defs>

  <rect width="1200" height="950" fill="#FAFAF9" rx="8"/>
  <text x="600" y="40" text-anchor="middle" font-size="22" font-weight="700" fill="#1a1a1a">Portage — Data Flow Wiring Diagram</text>
  <text x="600" y="62" text-anchor="middle" font-size="13" fill="#666">End-to-end request flows for scan, listing, order sync, and shipping</text>

  <!-- ====== FLOW 1: SCAN ====== -->
  <text x="50" y="100" font-size="14" font-weight="700" fill="#2D5A27">Flow 1: Photo Capture → AI Scan → Inventory</text>

  <rect x="50" y="115" width="130" height="50" rx="8" fill="#E8F5E3" stroke="#2D5A27" stroke-width="1.5" filter="url(#sh)"/>
  <text x="115" y="137" text-anchor="middle" font-size="11" font-weight="600" fill="#2D5A27">Camera/Gallery</text>
  <text x="115" y="153" text-anchor="middle" font-size="9" fill="#666">getUserMedia</text>

  <line x1="180" y1="140" x2="220" y2="140" stroke="#2D5A27" stroke-width="1.5" marker-end="url(#af)"/>
  <text x="200" y="133" text-anchor="middle" font-size="8" fill="#2D5A27">Blob</text>

  <rect x="225" y="115" width="130" height="50" rx="8" fill="#E8F5E3" stroke="#2D5A27" stroke-width="1.5" filter="url(#sh)"/>
  <text x="290" y="137" text-anchor="middle" font-size="11" font-weight="600" fill="#2D5A27">POST /images</text>
  <text x="290" y="153" text-anchor="middle" font-size="9" fill="#666">FormData upload</text>

  <line x1="355" y1="140" x2="395" y2="140" stroke="#2D5A27" stroke-width="1.5" marker-end="url(#af)"/>
  <text x="375" y="133" text-anchor="middle" font-size="8" fill="#2D5A27">R2 URL</text>

  <rect x="400" y="115" width="140" height="50" rx="8" fill="#E8F5E3" stroke="#2D5A27" stroke-width="1.5" filter="url(#sh)"/>
  <text x="470" y="137" text-anchor="middle" font-size="11" font-weight="600" fill="#2D5A27">POST /scan/refine</text>
  <text x="470" y="153" text-anchor="middle" font-size="9" fill="#666">1-3 image URLs</text>

  <line x1="540" y1="140" x2="580" y2="140" stroke="#2D5A27" stroke-width="1.5" marker-end="url(#af)"/>
  <text x="560" y="133" text-anchor="middle" font-size="8" fill="#2D5A27">SSRF✓</text>

  <rect x="585" y="115" width="130" height="50" rx="8" fill="#E8F5E3" stroke="#2D5A27" stroke-width="1.5" filter="url(#sh)"/>
  <text x="650" y="137" text-anchor="middle" font-size="11" font-weight="600" fill="#2D5A27">Claude Vision</text>
  <text x="650" y="153" text-anchor="middle" font-size="9" fill="#666">identifyItemsMulti</text>

  <line x1="715" y1="140" x2="755" y2="140" stroke="#2D5A27" stroke-width="1.5" marker-end="url(#af)"/>
  <text x="735" y="133" text-anchor="middle" font-size="8" fill="#2D5A27">Zod✓</text>

  <rect x="760" y="115" width="130" height="50" rx="8" fill="#E8F5E3" stroke="#2D5A27" stroke-width="1.5" filter="url(#sh)"/>
  <text x="825" y="137" text-anchor="middle" font-size="11" font-weight="600" fill="#2D5A27">Candidates</text>
  <text x="825" y="153" text-anchor="middle" font-size="9" fill="#666">confidence % select</text>

  <line x1="890" y1="140" x2="930" y2="140" stroke="#2D5A27" stroke-width="1.5" marker-end="url(#af)"/>

  <rect x="935" y="115" width="120" height="50" rx="8" fill="#E8F5E3" stroke="#2D5A27" stroke-width="1.5" filter="url(#sh)"/>
  <text x="995" y="137" text-anchor="middle" font-size="11" font-weight="600" fill="#2D5A27">POST /items</text>
  <text x="995" y="153" text-anchor="middle" font-size="9" fill="#666">save to DB</text>

  <line x1="1055" y1="140" x2="1095" y2="140" stroke="#2D5A27" stroke-width="1.5" marker-end="url(#af)"/>

  <rect x="1100" y="125" width="60" height="30" rx="6" fill="#2D5A27"/>
  <text x="1130" y="145" text-anchor="middle" font-size="10" font-weight="600" fill="#fff">DB</text>

  <!-- ====== FLOW 2: LISTING ====== -->
  <text x="50" y="210" font-size="14" font-weight="700" fill="#3B5998">Flow 2: Listing Creation → Marketplace Publish</text>

  <rect x="50" y="225" width="130" height="50" rx="8" fill="#E0E8F5" stroke="#3B5998" stroke-width="1.5" filter="url(#sh)"/>
  <text x="115" y="247" text-anchor="middle" font-size="11" font-weight="600" fill="#3B5998">Item Detail</text>
  <text x="115" y="263" text-anchor="middle" font-size="9" fill="#666">"List for Sale"</text>

  <line x1="180" y1="250" x2="220" y2="250" stroke="#3B5998" stroke-width="1.5" marker-end="url(#af-blue)"/>

  <rect x="225" y="225" width="130" height="50" rx="8" fill="#E0E8F5" stroke="#3B5998" stroke-width="1.5" filter="url(#sh)"/>
  <text x="290" y="247" text-anchor="middle" font-size="11" font-weight="600" fill="#3B5998">useListingFlow</text>
  <text x="290" y="263" text-anchor="middle" font-size="9" fill="#666">state machine</text>

  <line x1="355" y1="250" x2="395" y2="250" stroke="#3B5998" stroke-width="1.5" marker-end="url(#af-blue)"/>

  <rect x="400" y="225" width="140" height="50" rx="8" fill="#E0E8F5" stroke="#3B5998" stroke-width="1.5" filter="url(#sh)"/>
  <text x="470" y="247" text-anchor="middle" font-size="11" font-weight="600" fill="#3B5998">prepare-listing</text>
  <text x="470" y="263" text-anchor="middle" font-size="9" fill="#666">AI field gen + comps</text>

  <line x1="540" y1="250" x2="580" y2="250" stroke="#3B5998" stroke-width="1.5" marker-end="url(#af-blue)"/>

  <rect x="585" y="225" width="130" height="50" rx="8" fill="#E0E8F5" stroke="#3B5998" stroke-width="1.5" filter="url(#sh)"/>
  <text x="650" y="247" text-anchor="middle" font-size="11" font-weight="600" fill="#3B5998">useDrafts</text>
  <text x="650" y="263" text-anchor="middle" font-size="9" fill="#666">auto-save 2s</text>

  <line x1="715" y1="250" x2="755" y2="250" stroke="#3B5998" stroke-width="1.5" marker-end="url(#af-blue)"/>

  <rect x="760" y="225" width="130" height="50" rx="8" fill="#E0E8F5" stroke="#3B5998" stroke-width="1.5" filter="url(#sh)"/>
  <text x="825" y="247" text-anchor="middle" font-size="11" font-weight="600" fill="#3B5998">POST /listings</text>
  <text x="825" y="263" text-anchor="middle" font-size="9" fill="#666">create listing</text>

  <line x1="890" y1="250" x2="930" y2="250" stroke="#3B5998" stroke-width="1.5" marker-end="url(#af-blue)"/>

  <rect x="935" y="225" width="120" height="50" rx="8" fill="#E0E8F5" stroke="#3B5998" stroke-width="1.5" filter="url(#sh)"/>
  <text x="995" y="247" text-anchor="middle" font-size="11" font-weight="600" fill="#3B5998">Marketplace</text>
  <text x="995" y="263" text-anchor="middle" font-size="9" fill="#666">Adapter.create()</text>

  <line x1="1055" y1="250" x2="1095" y2="250" stroke="#3B5998" stroke-width="1.5" marker-end="url(#af-blue)"/>

  <rect x="1100" y="235" width="60" height="30" rx="6" fill="#3B5998"/>
  <text x="1130" y="255" text-anchor="middle" font-size="10" font-weight="600" fill="#fff">eBay</text>

  <!-- ====== FLOW 3: ORDER SYNC ====== -->
  <text x="50" y="320" font-size="14" font-weight="700" fill="#C4722A">Flow 3: Order Sync → Shipping → Label</text>

  <rect x="50" y="335" width="130" height="50" rx="8" fill="#FFF5F0" stroke="#C4722A" stroke-width="1.5" filter="url(#sh)"/>
  <text x="115" y="357" text-anchor="middle" font-size="11" font-weight="600" fill="#C4722A">Sync Button</text>
  <text x="115" y="373" text-anchor="middle" font-size="9" fill="#666">Orders page</text>

  <line x1="180" y1="360" x2="220" y2="360" stroke="#C4722A" stroke-width="1.5" marker-end="url(#af-orange)"/>

  <rect x="225" y="335" width="130" height="50" rx="8" fill="#FFF5F0" stroke="#C4722A" stroke-width="1.5" filter="url(#sh)"/>
  <text x="290" y="357" text-anchor="middle" font-size="11" font-weight="600" fill="#C4722A">POST /orders/sync</text>
  <text x="290" y="373" text-anchor="middle" font-size="9" fill="#666">all marketplaces</text>

  <line x1="355" y1="360" x2="395" y2="360" stroke="#C4722A" stroke-width="1.5" marker-end="url(#af-orange)"/>

  <rect x="400" y="335" width="140" height="50" rx="8" fill="#FFF5F0" stroke="#C4722A" stroke-width="1.5" filter="url(#sh)"/>
  <text x="470" y="357" text-anchor="middle" font-size="11" font-weight="600" fill="#C4722A">Adapter.sync()</text>
  <text x="470" y="373" text-anchor="middle" font-size="9" fill="#666">match by listingId</text>

  <line x1="540" y1="360" x2="580" y2="360" stroke="#C4722A" stroke-width="1.5" marker-end="url(#af-orange)"/>

  <rect x="585" y="335" width="130" height="50" rx="8" fill="#FFF5F0" stroke="#C4722A" stroke-width="1.5" filter="url(#sh)"/>
  <text x="650" y="357" text-anchor="middle" font-size="11" font-weight="600" fill="#C4722A">Package Config</text>
  <text x="650" y="373" text-anchor="middle" font-size="9" fill="#666">presets or manual</text>

  <line x1="715" y1="360" x2="755" y2="360" stroke="#C4722A" stroke-width="1.5" marker-end="url(#af-orange)"/>

  <rect x="760" y="335" width="130" height="50" rx="8" fill="#FFF5F0" stroke="#C4722A" stroke-width="1.5" filter="url(#sh)"/>
  <text x="825" y="357" text-anchor="middle" font-size="11" font-weight="600" fill="#C4722A">Get Rates</text>
  <text x="825" y="373" text-anchor="middle" font-size="9" fill="#666">carrier compare</text>

  <line x1="890" y1="360" x2="930" y2="360" stroke="#C4722A" stroke-width="1.5" marker-end="url(#af-orange)"/>

  <rect x="935" y="335" width="120" height="50" rx="8" fill="#FFF5F0" stroke="#C4722A" stroke-width="1.5" filter="url(#sh)"/>
  <text x="995" y="357" text-anchor="middle" font-size="11" font-weight="600" fill="#C4722A">Buy Label</text>
  <text x="995" y="373" text-anchor="middle" font-size="9" fill="#666">mark shipped</text>

  <line x1="1055" y1="360" x2="1095" y2="360" stroke="#C4722A" stroke-width="1.5" marker-end="url(#af-orange)"/>

  <rect x="1100" y="345" width="60" height="30" rx="6" fill="#C4722A"/>
  <text x="1130" y="365" text-anchor="middle" font-size="10" font-weight="600" fill="#fff">Done</text>

  <!-- ====== FLOW 4: AUTH ====== -->
  <text x="50" y="430" font-size="14" font-weight="700" fill="#5B4B8A">Flow 4: Auth Token Lifecycle</text>

  <rect x="50" y="445" width="130" height="50" rx="8" fill="#F5F0FF" stroke="#5B4B8A" stroke-width="1.5" filter="url(#sh)"/>
  <text x="115" y="467" text-anchor="middle" font-size="11" font-weight="600" fill="#5B4B8A">Login / Register</text>
  <text x="115" y="483" text-anchor="middle" font-size="9" fill="#666">email + password</text>

  <line x1="180" y1="470" x2="220" y2="470" stroke="#5B4B8A" stroke-width="1.5" marker-end="url(#af-gray)"/>

  <rect x="225" y="445" width="150" height="50" rx="8" fill="#F5F0FF" stroke="#5B4B8A" stroke-width="1.5" filter="url(#sh)"/>
  <text x="300" y="467" text-anchor="middle" font-size="11" font-weight="600" fill="#5B4B8A">bcrypt verify</text>
  <text x="300" y="483" text-anchor="middle" font-size="9" fill="#666">JWT sign (access+refresh)</text>

  <line x1="375" y1="470" x2="415" y2="470" stroke="#5B4B8A" stroke-width="1.5" marker-end="url(#af-gray)"/>

  <rect x="420" y="445" width="140" height="50" rx="8" fill="#F5F0FF" stroke="#5B4B8A" stroke-width="1.5" filter="url(#sh)"/>
  <text x="490" y="467" text-anchor="middle" font-size="11" font-weight="600" fill="#5B4B8A">localStorage</text>
  <text x="490" y="483" text-anchor="middle" font-size="9" fill="#666">token + refresh + user</text>

  <line x1="560" y1="470" x2="600" y2="470" stroke="#5B4B8A" stroke-width="1.5" marker-end="url(#af-gray)"/>

  <rect x="605" y="445" width="140" height="50" rx="8" fill="#F5F0FF" stroke="#5B4B8A" stroke-width="1.5" filter="url(#sh)"/>
  <text x="675" y="467" text-anchor="middle" font-size="11" font-weight="600" fill="#5B4B8A">API call (Bearer)</text>
  <text x="675" y="483" text-anchor="middle" font-size="9" fill="#666">requireAuth mid.</text>

  <line x1="745" y1="470" x2="785" y2="470" stroke="#5B4B8A" stroke-width="1.5" marker-end="url(#af-gray)"/>

  <rect x="790" y="445" width="120" height="50" rx="8" fill="#FFF0F0" stroke="#DC3545" stroke-width="1.5" filter="url(#sh)"/>
  <text x="850" y="467" text-anchor="middle" font-size="11" font-weight="600" fill="#DC3545">401?</text>
  <text x="850" y="483" text-anchor="middle" font-size="9" fill="#666">expired token</text>

  <line x1="910" y1="470" x2="950" y2="470" stroke="#DC3545" stroke-width="1.5" marker-end="url(#af-gray)"/>

  <rect x="955" y="445" width="130" height="50" rx="8" fill="#F5F0FF" stroke="#5B4B8A" stroke-width="1.5" filter="url(#sh)"/>
  <text x="1020" y="467" text-anchor="middle" font-size="11" font-weight="600" fill="#5B4B8A">Auto Refresh</text>
  <text x="1020" y="483" text-anchor="middle" font-size="9" fill="#666">singleton promise</text>

  <!-- Refresh loop arrow -->
  <path d="M1020 445 L1020 425 L490 425 L490 445" fill="none" stroke="#5B4B8A" stroke-width="1" stroke-dasharray="4 2" marker-end="url(#af-gray)"/>
  <text x="755" y="420" text-anchor="middle" font-size="9" fill="#5B4B8A">retry original request with new token</text>

  <!-- ====== DATABASE ENTITY RELATIONSHIPS ====== -->
  <text x="50" y="540" font-size="14" font-weight="700" fill="#1a1a1a">Database Entity Relationships (16 tables)</text>

  <!-- users -->
  <rect x="50" y="560" width="170" height="180" rx="8" fill="#fff" stroke="#2D5A27" stroke-width="2" filter="url(#sh)"/>
  <rect x="50" y="560" width="170" height="25" rx="8" fill="#2D5A27"/>
  <rect x="50" y="578" width="170" height="7" fill="#2D5A27"/>
  <text x="135" y="579" text-anchor="middle" font-size="11" font-weight="600" fill="#fff">users</text>
  <text x="65" y="602" font-size="9" font-family="monospace" fill="#333">id (PK)</text>
  <text x="65" y="616" font-size="9" font-family="monospace" fill="#333">email (unique)</text>
  <text x="65" y="630" font-size="9" font-family="monospace" fill="#333">passwordHash</text>
  <text x="65" y="644" font-size="9" font-family="monospace" fill="#333">role (user|admin)</text>
  <text x="65" y="658" font-size="9" font-family="monospace" fill="#333">subscriptionTier</text>
  <text x="65" y="672" font-size="9" font-family="monospace" fill="#333">address (jsonb)</text>
  <text x="65" y="686" font-size="9" font-family="monospace" fill="#333">shipFromAddress (jsonb)</text>
  <text x="65" y="700" font-size="9" font-family="monospace" fill="#333">listingInterface</text>
  <text x="65" y="714" font-size="9" font-family="monospace" fill="#333">onboardingCompleted</text>
  <text x="65" y="730" font-size="9" font-family="monospace" fill="#2D5A27">+ 12 more columns</text>

  <!-- items -->
  <rect x="280" y="560" width="170" height="180" rx="8" fill="#fff" stroke="#3B5998" stroke-width="2" filter="url(#sh)"/>
  <rect x="280" y="560" width="170" height="25" rx="8" fill="#3B5998"/>
  <rect x="280" y="578" width="170" height="7" fill="#3B5998"/>
  <text x="365" y="579" text-anchor="middle" font-size="11" font-weight="600" fill="#fff">items</text>
  <text x="295" y="602" font-size="9" font-family="monospace" fill="#333">id (PK)</text>
  <text x="295" y="616" font-size="9" font-family="monospace" fill="#333">userId (FK→users)</text>
  <text x="295" y="630" font-size="9" font-family="monospace" fill="#333">title, description</text>
  <text x="295" y="644" font-size="9" font-family="monospace" fill="#333">category, condition</text>
  <text x="295" y="658" font-size="9" font-family="monospace" fill="#333">brand, model</text>
  <text x="295" y="672" font-size="9" font-family="monospace" fill="#333">photos (jsonb[])</text>
  <text x="295" y="686" font-size="9" font-family="monospace" fill="#333">features (jsonb[])</text>
  <text x="295" y="700" font-size="9" font-family="monospace" fill="#333">estimatedValue*</text>
  <text x="295" y="714" font-size="9" font-family="monospace" fill="#333">aiConfidenceScore</text>
  <text x="295" y="730" font-size="9" font-family="monospace" fill="#3B5998">ON DELETE CASCADE</text>

  <!-- listings -->
  <rect x="510" y="560" width="170" height="180" rx="8" fill="#fff" stroke="#C4722A" stroke-width="2" filter="url(#sh)"/>
  <rect x="510" y="560" width="170" height="25" rx="8" fill="#C4722A"/>
  <rect x="510" y="578" width="170" height="7" fill="#C4722A"/>
  <text x="595" y="579" text-anchor="middle" font-size="11" font-weight="600" fill="#fff">listings</text>
  <text x="525" y="602" font-size="9" font-family="monospace" fill="#333">id (PK)</text>
  <text x="525" y="616" font-size="9" font-family="monospace" fill="#333">itemId (FK→items)</text>
  <text x="525" y="630" font-size="9" font-family="monospace" fill="#333">userId (FK→users)</text>
  <text x="525" y="644" font-size="9" font-family="monospace" fill="#333">marketplace (enum)</text>
  <text x="525" y="658" font-size="9" font-family="monospace" fill="#333">marketplaceListingId</text>
  <text x="525" y="672" font-size="9" font-family="monospace" fill="#333">status (enum)</text>
  <text x="525" y="686" font-size="9" font-family="monospace" fill="#333">price, currency</text>
  <text x="525" y="700" font-size="9" font-family="monospace" fill="#333">publishedAt, soldAt</text>
  <text x="525" y="714" font-size="9" font-family="monospace" fill="#333">marketplaceSpecific</text>
  <text x="525" y="730" font-size="9" font-family="monospace" fill="#C4722A">ON DELETE CASCADE</text>

  <!-- orders -->
  <rect x="740" y="560" width="170" height="180" rx="8" fill="#fff" stroke="#5B4B8A" stroke-width="2" filter="url(#sh)"/>
  <rect x="740" y="560" width="170" height="25" rx="8" fill="#5B4B8A"/>
  <rect x="740" y="578" width="170" height="7" fill="#5B4B8A"/>
  <text x="825" y="579" text-anchor="middle" font-size="11" font-weight="600" fill="#fff">orders</text>
  <text x="755" y="602" font-size="9" font-family="monospace" fill="#333">id (PK)</text>
  <text x="755" y="616" font-size="9" font-family="monospace" fill="#333">listingId (FK→listings)</text>
  <text x="755" y="630" font-size="9" font-family="monospace" fill="#333">userId (FK→users)</text>
  <text x="755" y="644" font-size="9" font-family="monospace" fill="#333">marketplace (enum)</text>
  <text x="755" y="658" font-size="9" font-family="monospace" fill="#333">marketplaceOrderId</text>
  <text x="755" y="672" font-size="9" font-family="monospace" fill="#333">buyerUsername</text>
  <text x="755" y="686" font-size="9" font-family="monospace" fill="#333">salePrice</text>
  <text x="755" y="700" font-size="9" font-family="monospace" fill="#333">shippingAddress (jsonb)</text>
  <text x="755" y="714" font-size="9" font-family="monospace" fill="#333">status (enum)</text>
  <text x="755" y="730" font-size="9" font-family="monospace" fill="#5B4B8A">ON DELETE CASCADE</text>

  <!-- Supporting tables -->
  <rect x="970" y="560" width="180" height="180" rx="8" fill="#fff" stroke="#888" stroke-width="1.5" filter="url(#sh)"/>
  <rect x="970" y="560" width="180" height="25" rx="8" fill="#888"/>
  <rect x="970" y="578" width="180" height="7" fill="#888"/>
  <text x="1060" y="579" text-anchor="middle" font-size="11" font-weight="600" fill="#fff">Supporting (12 tables)</text>
  <text x="985" y="602" font-size="9" font-family="monospace" fill="#333">marketplace_accounts</text>
  <text x="985" y="616" font-size="9" font-family="monospace" fill="#333">conversations</text>
  <text x="985" y="630" font-size="9" font-family="monospace" fill="#333">notifications</text>
  <text x="985" y="644" font-size="9" font-family="monospace" fill="#333">listing_drafts</text>
  <text x="985" y="658" font-size="9" font-family="monospace" fill="#333">seller_profiles</text>
  <text x="985" y="672" font-size="9" font-family="monospace" fill="#333">shipping_presets</text>
  <text x="985" y="686" font-size="9" font-family="monospace" fill="#333">shipping_providers</text>
  <text x="985" y="700" font-size="9" font-family="monospace" fill="#333">admin_audit_log</text>
  <text x="985" y="714" font-size="9" font-family="monospace" fill="#333">app_settings</text>
  <text x="985" y="728" font-size="9" font-family="monospace" fill="#333">disclaimer_acceptances</text>

  <!-- FK relationship lines -->
  <line x1="220" y1="650" x2="278" y2="615" stroke="#555" stroke-width="1.5" marker-end="url(#af-gray)"/>
  <text x="250" y="628" text-anchor="middle" font-size="8" fill="#555">1:N</text>

  <line x1="450" y1="615" x2="508" y2="615" stroke="#555" stroke-width="1.5" marker-end="url(#af-gray)"/>
  <text x="480" y="610" text-anchor="middle" font-size="8" fill="#555">1:N</text>

  <line x1="680" y1="615" x2="738" y2="615" stroke="#555" stroke-width="1.5" marker-end="url(#af-gray)"/>
  <text x="710" y="610" text-anchor="middle" font-size="8" fill="#555">1:1</text>

  <!-- ====== ENUMS ====== -->
  <text x="50" y="775" font-size="14" font-weight="700" fill="#1a1a1a">Enum Types</text>

  <rect x="50" y="790" width="165" height="80" rx="6" fill="#F0F7EE" stroke="#2D5A27" stroke-width="1"/>
  <text x="60" y="808" font-size="10" font-weight="600" fill="#2D5A27">item_condition</text>
  <text x="60" y="824" font-size="9" font-family="monospace" fill="#555">new | like_new | good</text>
  <text x="60" y="838" font-size="9" font-family="monospace" fill="#555">fair | poor</text>

  <rect x="235" y="790" width="165" height="80" rx="6" fill="#E0E8F5" stroke="#3B5998" stroke-width="1"/>
  <text x="245" y="808" font-size="10" font-weight="600" fill="#3B5998">listing_status</text>
  <text x="245" y="824" font-size="9" font-family="monospace" fill="#555">draft | active</text>
  <text x="245" y="838" font-size="9" font-family="monospace" fill="#555">sold | archived</text>

  <rect x="420" y="790" width="165" height="80" rx="6" fill="#FFF5F0" stroke="#C4722A" stroke-width="1"/>
  <text x="430" y="808" font-size="10" font-weight="600" fill="#C4722A">order_status</text>
  <text x="430" y="824" font-size="9" font-family="monospace" fill="#555">payment_received</text>
  <text x="430" y="838" font-size="9" font-family="monospace" fill="#555">label_purchased | shipped</text>
  <text x="430" y="852" font-size="9" font-family="monospace" fill="#555">delivered</text>

  <rect x="605" y="790" width="155" height="80" rx="6" fill="#F5F0FF" stroke="#5B4B8A" stroke-width="1"/>
  <text x="615" y="808" font-size="10" font-weight="600" fill="#5B4B8A">marketplace_type</text>
  <text x="615" y="824" font-size="9" font-family="monospace" fill="#555">ebay | etsy | reverb</text>

  <rect x="780" y="790" width="155" height="80" rx="6" fill="#fff" stroke="#888" stroke-width="1"/>
  <text x="790" y="808" font-size="10" font-weight="600" fill="#555">user_role</text>
  <text x="790" y="824" font-size="9" font-family="monospace" fill="#555">user | admin</text>
  <text x="790" y="845" font-size="10" font-weight="600" fill="#555">subscription_tier</text>
  <text x="790" y="860" font-size="9" font-family="monospace" fill="#555">free | pro</text>

  <rect x="955" y="790" width="195" height="80" rx="6" fill="#fff" stroke="#888" stroke-width="1"/>
  <text x="965" y="808" font-size="10" font-weight="600" fill="#555">package_type</text>
  <text x="965" y="824" font-size="9" font-family="monospace" fill="#555">box | envelope | poly_mailer</text>
  <text x="965" y="845" font-size="10" font-weight="600" fill="#555">shipping_provider</text>
  <text x="965" y="860" font-size="9" font-family="monospace" fill="#555">shippo | easypost | pirate_ship</text>

  <!-- Legend -->
  <rect x="50" y="895" width="1100" height="40" rx="6" fill="#f5f5f5" stroke="#ddd"/>
  <text x="70" y="920" font-size="11" font-weight="600" fill="#333">Legend:</text>
  <rect x="130" y="908" width="12" height="12" rx="2" fill="#2D5A27"/>
  <text x="148" y="919" font-size="10" fill="#333">Scan Flow</text>
  <rect x="230" y="908" width="12" height="12" rx="2" fill="#3B5998"/>
  <text x="248" y="919" font-size="10" fill="#333">Listing Flow</text>
  <rect x="340" y="908" width="12" height="12" rx="2" fill="#C4722A"/>
  <text x="358" y="919" font-size="10" fill="#333">Order/Shipping Flow</text>
  <rect x="490" y="908" width="12" height="12" rx="2" fill="#5B4B8A"/>
  <text x="508" y="919" font-size="10" fill="#333">Auth Flow</text>
  <text x="620" y="919" font-size="10" fill="#666">FK = Foreign Key · PK = Primary Key · jsonb = JSON Binary column</text>
</svg>
